# xmcd CD database file
#
# Track frame offsets:
#	150
#	34625
#	63190
#	96600
#	118425
#	143482
#	158155
#	181992
#
# Disc length: 2685 seconds
#
# Revision: 0
# Processed by: cddbd v1.5.1PL0 Copyright (c) Steve Scherf et al.
# Submitted via: CDex 1.51
#
DISCID=6b0a7b08
DTITLE=Kiyoto Fujiwara - DUKE and MINGUS
DYEAR=1900
DGENRE=Jazz
TTITLE0=Better git hit in your soul
TTITLE1=For harry carney
TTITLE2=African flower
TTITLE3=Mood Indigo
TTITLE4=Money Jungle
TTITLE5=Folk Forms, No.1
TTITLE6=Orange was the color of her dress, then blue silk
TTITLE7=Duke Ellington's sound of love
EXTD=
EXTT0=
EXTT1=
EXTT2=
EXTT3=
EXTT4=
EXTT5=
EXTT6=
EXTT7=
PLAYORDER=
